<svg width="413" height="190" viewBox="0 0 413 190" fill="none" xmlns="http://www.w3.org/2000/svg">
	<path d="M105.5 14.5224V0.5H373C380.009 0.5 385.236 0.500389 389.379 0.838944C393.517 1.17702 396.531 1.84982 399.123 3.17034C403.733 5.51924 407.481 9.26726 409.83 13.8772C411.15 16.4689 411.823 19.4829 412.161 23.6208C412.5 27.7645 412.5 32.9911 412.5 40V150C412.5 157.009 412.5 162.236 412.161 166.379C411.823 170.517 411.15 173.531 409.83 176.123C407.481 180.733 403.733 184.481 399.123 186.83C396.531 188.15 393.517 188.823 389.379 189.161C385.236 189.5 380.009 189.5 373 189.5H105.5V175.478C108.303 175.225 110.5 172.869 110.5 170C110.5 167.131 108.303 164.775 105.5 164.522V160.478C108.303 160.225 110.5 157.869 110.5 155C110.5 152.131 108.303 149.775 105.5 149.522V145.478C108.303 145.225 110.5 142.869 110.5 140C110.5 137.131 108.303 134.775 105.5 134.522V130.478C108.303 130.225 110.5 127.869 110.5 125C110.5 122.131 108.303 119.775 105.5 119.522V115.478C108.303 115.225 110.5 112.869 110.5 110C110.5 107.131 108.303 104.775 105.5 104.522V100.478C108.303 100.225 110.5 97.869 110.5 95C110.5 92.131 108.303 89.775 105.5 89.5224V85.4776C108.303 85.225 110.5 82.869 110.5 80C110.5 77.131 108.303 74.775 105.5 74.5224V70.4776C108.303 70.225 110.5 67.869 110.5 65C110.5 62.131 108.303 59.775 105.5 59.5224V55.4776C108.303 55.225 110.5 52.869 110.5 50C110.5 47.131 108.303 44.775 105.5 44.5224V40.4776C108.303 40.225 110.5 37.869 110.5 35C110.5 32.131 108.303 29.775 105.5 29.5224V25.4776C108.303 25.225 110.5 22.869 110.5 20C110.5 17.131 108.303 14.775 105.5 14.5224Z" fill="white" stroke="#E8EAEE" />
	<g filter="url(#filter0_d_0_1)">
		<path d="M100 0H25C11.1929 0 0 11.1929 0 25V165C0 178.807 11.1929 190 25 190H100V176C100 175.448 99.5478 175.01 99.0064 174.901C96.721 174.44 95 172.421 95 170C95 167.579 96.721 165.56 99.0064 165.099C99.5478 164.99 100 164.552 100 164V161C100 160.448 99.5478 160.01 99.0064 159.901C96.721 159.44 95 157.421 95 155C95 152.579 96.721 150.56 99.0064 150.099C99.5478 149.99 100 149.552 100 149V146C100 145.448 99.5478 145.01 99.0064 144.901C96.721 144.44 95 142.421 95 140C95 137.579 96.721 135.56 99.0064 135.099C99.5478 134.99 100 134.552 100 134V131C100 130.448 99.5478 130.01 99.0064 129.901C96.721 129.44 95 127.421 95 125C95 122.579 96.721 120.56 99.0064 120.099C99.5478 119.99 100 119.552 100 119V116C100 115.448 99.5478 115.01 99.0064 114.901C96.721 114.44 95 112.421 95 110C95 107.579 96.721 105.56 99.0064 105.099C99.5478 104.99 100 104.552 100 104V101C100 100.448 99.5478 100.01 99.0064 99.9013C96.721 99.4405 95 97.4212 95 95C95 92.5788 96.721 90.5595 99.0064 90.0987C99.5478 89.9896 100 89.5523 100 89V86C100 85.4477 99.5478 85.0104 99.0064 84.9013C96.721 84.4405 95 82.4212 95 80C95 77.5788 96.721 75.5595 99.0064 75.0987C99.5478 74.9896 100 74.5523 100 74V71C100 70.4477 99.5478 70.0104 99.0064 69.9013C96.721 69.4405 95 67.4212 95 65C95 62.5788 96.721 60.5595 99.0064 60.0987C99.5478 59.9896 100 59.5523 100 59V56C100 55.4477 99.5478 55.0104 99.0064 54.9013C96.721 54.4405 95 52.4212 95 50C95 47.5788 96.721 45.5595 99.0064 45.0987C99.5478 44.9896 100 44.5523 100 44V41C100 40.4477 99.5478 40.0104 99.0064 39.9013C96.721 39.4405 95 37.4212 95 35C95 32.5788 96.721 30.5595 99.0064 30.0987C99.5478 29.9896 100 29.5523 100 29V26C100 25.4477 99.5478 25.0104 99.0064 24.9013C96.721 24.4405 95 22.4212 95 20C95 17.5788 96.721 15.5595 99.0064 15.0987C99.5478 14.9896 100 14.5523 100 14V0Z" fill="#FF1C67" />
		<path d="M25 0.5H99.5V14C99.5 14.2572 99.2765 14.5342 98.9076 14.6086C96.3934 15.1155 94.5 17.3361 94.5 20C94.5 22.6639 96.3934 24.8845 98.9076 25.3914C99.2765 25.4658 99.5 25.7428 99.5 26V29C99.5 29.2572 99.2765 29.5342 98.9076 29.6086C96.3934 30.1155 94.5 32.3361 94.5 35C94.5 37.6639 96.3934 39.8845 98.9076 40.3914C99.2765 40.4658 99.5 40.7429 99.5 41V44C99.5 44.2571 99.2765 44.5342 98.9076 44.6086C96.3934 45.1155 94.5 47.3361 94.5 50C94.5 52.6639 96.3934 54.8845 98.9076 55.3914C99.2765 55.4658 99.5 55.7429 99.5 56V59C99.5 59.2571 99.2765 59.5342 98.9076 59.6086C96.3934 60.1155 94.5 62.3361 94.5 65C94.5 67.6639 96.3934 69.8845 98.9076 70.3914C99.2765 70.4658 99.5 70.7429 99.5 71V74C99.5 74.2571 99.2765 74.5342 98.9076 74.6086C96.3934 75.1155 94.5 77.3361 94.5 80C94.5 82.6639 96.3934 84.8845 98.9076 85.3914C99.2765 85.4658 99.5 85.7429 99.5 86V89C99.5 89.2571 99.2765 89.5342 98.9076 89.6086C96.3934 90.1155 94.5 92.3361 94.5 95C94.5 97.6639 96.3934 99.8845 98.9076 100.391C99.2765 100.466 99.5 100.743 99.5 101V104C99.5 104.257 99.2765 104.534 98.9076 104.609C96.3934 105.116 94.5 107.336 94.5 110C94.5 112.664 96.3934 114.884 98.9076 115.391C99.2765 115.466 99.5 115.743 99.5 116V119C99.5 119.257 99.2765 119.534 98.9076 119.609C96.3934 120.116 94.5 122.336 94.5 125C94.5 127.664 96.3934 129.884 98.9076 130.391C99.2765 130.466 99.5 130.743 99.5 131V134C99.5 134.257 99.2765 134.534 98.9076 134.609C96.3934 135.116 94.5 137.336 94.5 140C94.5 142.664 96.3934 144.884 98.9076 145.391C99.2765 145.466 99.5 145.743 99.5 146V149C99.5 149.257 99.2765 149.534 98.9076 149.609C96.3934 150.116 94.5 152.336 94.5 155C94.5 157.664 96.3934 159.884 98.9076 160.391C99.2765 160.466 99.5 160.743 99.5 161V164C99.5 164.257 99.2765 164.534 98.9076 164.609C96.3934 165.116 94.5 167.336 94.5 170C94.5 172.664 96.3934 174.884 98.9076 175.391C99.2765 175.466 99.5 175.743 99.5 176V189.5H25C11.469 189.5 0.5 178.531 0.5 165V25C0.5 11.469 11.469 0.5 25 0.5Z" stroke="#D40047" />
	</g>
	<defs>
		<filter id="filter0_d_0_1" x="0" y="-3" width="106" height="196" filterUnits="userSpaceOnUse" color-interpolation-filters="sRGB">
			<feFlood flood-opacity="0" result="BackgroundImageFix" />
			<feColorMatrix in="SourceAlpha" type="matrix" values="0 0 0 0 0 0 0 0 0 0 0 0 0 0 0 0 0 0 127 0" result="hardAlpha" />
			<feOffset dx="3" />
			<feGaussianBlur stdDeviation="1.5" />
			<feComposite in2="hardAlpha" operator="out" />
			<feColorMatrix type="matrix" values="0 0 0 0 0.12549 0 0 0 0 0.12549 0 0 0 0 0.141176 0 0 0 0.15 0" />
			<feBlend mode="normal" in2="BackgroundImageFix" result="effect1_dropShadow_0_1" />
			<feBlend mode="normal" in="SourceGraphic" in2="effect1_dropShadow_0_1" result="shape" />
		</filter>
	</defs>
</svg>
